<svg width="22" height="18" viewBox="0 0 22 18" fill="none" xmlns="http://www.w3.org/2000/svg">
<path d="M0.971479 8.3999L8.68577 0.68561C9.02862 0.342753 9.54291 0.342753 9.88577 0.68561C10.2286 1.02847 10.2286 1.54275 9.88577 1.88561L3.62862 8.14275H20.4286C20.9429 8.14275 21.2858 8.48561 21.2858 8.9999C21.2858 9.51418 20.9429 9.85704 20.4286 9.85704H3.62862L9.88577 16.1142C10.2286 16.457 10.2286 16.9713 9.88577 17.3142C9.54291 17.657 9.02862 17.657 8.68577 17.3142L0.971479 9.59989C0.800051 9.42847 0.714338 9.25704 0.714338 8.9999C0.714338 8.74275 0.800051 8.57132 0.971479 8.3999Z" fill="#171717"/>
</svg>
