<svg width="22" height="18" viewBox="0 0 22 18" fill="none" xmlns="http://www.w3.org/2000/svg">
<path d="M21.0285 8.3999L13.3142 0.68561C12.9714 0.342753 12.4571 0.342753 12.1142 0.68561C11.7714 1.02847 11.7714 1.54275 12.1142 1.88561L18.3714 8.14275H1.57138C1.05709 8.14275 0.714233 8.48561 0.714233 8.9999C0.714233 9.51418 1.05709 9.85704 1.57138 9.85704H18.3714L12.1142 16.1142C11.7714 16.457 11.7714 16.9713 12.1142 17.3142C12.4571 17.657 12.9714 17.657 13.3142 17.3142L21.0285 9.59989C21.1999 9.42847 21.2857 9.25704 21.2857 8.9999C21.2857 8.74275 21.1999 8.57132 21.0285 8.3999Z" fill="#171717"/>
</svg>
