<svg width="18" height="22" viewBox="0 0 18 22" fill="none" xmlns="http://www.w3.org/2000/svg">
<path d="M8.40002 0.971357L0.685732 8.68564C0.342875 9.0285 0.342875 9.54279 0.685732 9.88564C1.02859 10.2285 1.54287 10.2285 1.88573 9.88564L8.14287 3.6285V20.4285C8.14287 20.9428 8.48573 21.2856 9.00002 21.2856C9.5143 21.2856 9.85716 20.9428 9.85716 20.4285L9.85716 3.6285L16.1143 9.88564C16.4572 10.2285 16.9714 10.2285 17.3143 9.88564C17.6572 9.54279 17.6572 9.0285 17.3143 8.68564L9.60002 0.971357C9.42859 0.799929 9.25716 0.714216 9.00002 0.714216C8.74287 0.714216 8.57145 0.799929 8.40002 0.971357Z" fill="#171717"/>
</svg>
