<svg width="72" height="72" viewBox="0 0 72 72" fill="none" xmlns="http://www.w3.org/2000/svg">
<g clip-path="url(#clip0_35_75)">
<path d="M38.2755 35.0681C38.7394 35.3829 39.4258 35.2479 39.7376 34.7882L52.3859 16.1542C52.7125 15.6732 52.5873 15.0186 52.1061 14.6921C51.6253 14.3658 50.9705 14.4907 50.6441 14.972L37.9958 33.606C37.6692 34.0869 37.7945 34.7416 38.2755 35.0681Z" fill="black"/>
<path d="M52.0413 35.2497C54.2318 35.2497 56.0142 33.0592 56.0142 30.3664C55.7898 23.8855 48.2921 23.887 48.0684 30.3664C48.0684 33.0592 49.8506 35.2497 52.0413 35.2497ZM52.0413 27.5885C53.0537 27.5885 53.9089 28.8605 53.9089 30.3664C53.9089 31.8723 53.0537 33.1444 52.0413 33.1444C51.0289 33.1444 50.1736 31.8723 50.1736 30.3664C50.1736 28.8605 51.029 27.5885 52.0413 27.5885Z" fill="black"/>
<path d="M42.153 19.3938C42.153 16.701 40.3707 14.5105 38.18 14.5105C32.9113 14.7709 32.9133 24.018 38.18 24.2771C40.3707 24.2771 42.153 22.0864 42.153 19.3938ZM36.3125 19.3938C36.3125 17.8879 37.1678 16.6158 38.1802 16.6158C39.1926 16.6158 40.0478 17.8879 40.0478 19.3938C40.0478 20.8997 39.1926 22.1717 38.1802 22.1717C37.1678 22.1717 36.3125 20.8995 36.3125 19.3938Z" fill="black"/>
<path d="M37.6363 48.5548C63.4727 56.2561 81.3588 23.9103 61.2407 6.04081C60.8 5.66143 60.1354 5.71083 59.7561 6.15155C59.3768 6.59213 59.4262 7.25672 59.8668 7.6361C78.5421 24.2724 61.4109 54.1661 37.6363 46.3359V39.1827C37.6363 38.2804 37.0903 37.0101 34.4898 36.0818C31.5228 35.0226 28.0997 34.9287 25.0029 35.3665C15.0768 15.9897 35.392 -4.99838 55.0263 4.44369C55.548 4.69858 56.1788 4.48229 56.4341 3.95988C56.6893 3.43761 56.4728 2.80727 55.9506 2.55196C34.7719 -7.65547 12.6458 14.6607 22.8664 35.7998C22.5517 35.8861 22.2493 35.9797 21.9633 36.0818C19.3628 37.0102 18.8168 38.2806 18.8168 39.1827V46.1895C16.676 45.1763 14.3674 44.8519 11.5257 44.8133C10.1321 44.8608 10.1317 46.8701 11.5246 46.9187C13.6367 46.9198 15.6066 47.2088 17.0716 47.7325C18.5135 48.2479 18.817 48.7682 18.817 48.8493C18.817 48.9306 18.513 49.4517 17.068 49.9674C13.7168 51.1638 9.30697 51.1632 5.95736 49.9674C4.51239 49.4516 4.20838 48.9304 4.20838 48.8493C4.20838 48.7538 4.5778 48.154 6.33352 47.6067C7.65006 47.1458 7.05088 45.2281 5.7071 45.5968C2.72832 46.5253 2.10303 47.878 2.10303 48.8493V67.8801C2.10303 68.7823 2.64901 70.0527 5.24954 70.981C9.05573 72.3397 13.9709 72.3392 17.7758 70.981C18.7217 70.6433 19.3948 70.2603 19.8696 69.8663C20.3445 70.2603 21.0176 70.6433 21.9635 70.981C25.7698 72.3397 30.685 72.3392 34.4899 70.981C35.4358 70.6433 36.1089 70.2603 36.5837 69.8663C37.0586 70.2603 37.7317 70.6433 38.6776 70.981C42.4838 72.3397 47.3989 72.3392 51.2038 70.981C53.8044 70.0525 54.3504 68.7822 54.3504 67.8801V58.3646C54.3504 57.4624 53.8044 56.1921 51.2038 55.2637C47.3977 53.9051 42.4825 53.9055 38.6776 55.2637C38.2853 55.4038 37.9404 55.5517 37.6364 55.705C37.6353 54.3327 37.6384 50.2602 37.6353 48.8285C37.637 48.7905 37.636 48.5961 37.6363 48.5548ZM52.2449 63.1224C52.2449 63.2037 51.9409 63.7248 50.4959 64.2405C47.1447 65.4369 42.7349 65.4364 39.3853 64.2405C37.9403 63.7247 37.6363 63.2036 37.6363 63.1224V61.0245C37.9403 61.1777 38.2851 61.3257 38.6774 61.4658C42.4836 62.8245 47.3988 62.824 51.2037 61.4658C51.596 61.3257 51.9409 61.1778 52.2449 61.0245V63.1224ZM35.5309 43.9405C35.5309 44.0217 35.2269 44.5429 33.7819 45.0585C30.4308 46.2549 26.0208 46.2545 22.6712 45.0585C21.2262 44.5427 20.9222 44.0216 20.9222 43.9405V41.8426C21.2262 41.9957 21.5711 42.1438 21.9633 42.2838C25.7697 43.6425 30.6848 43.6421 34.4898 42.2838C34.8821 42.1438 35.2269 41.9958 35.5309 41.8426V43.9405ZM21.9633 47.0414C26.1308 48.4934 31.5018 48.4525 35.5309 46.6002V48.7738C35.5309 48.855 35.2269 49.3762 33.7819 49.892C30.4305 51.0884 26.0211 51.0877 22.6712 49.892C21.2262 49.3762 20.9222 48.855 20.9222 48.7738V46.6002C21.2262 46.7533 21.5709 46.9013 21.9633 47.0414ZM18.8168 58.3646C18.8168 58.4459 18.5128 58.967 17.0678 59.4829C13.7164 60.6793 9.30711 60.6787 5.95722 59.4829C4.51225 58.967 4.20824 58.4459 4.20824 58.3646V56.2667C4.51225 56.4198 4.85711 56.5679 5.2494 56.708C9.05559 58.0667 13.9707 58.0662 17.7757 56.708C18.168 56.5679 18.5128 56.42 18.8168 56.2667V58.3646ZM4.20824 61.0244C4.51225 61.1775 4.85711 61.3256 5.2494 61.4657C9.05559 62.8243 13.9707 62.8239 17.7757 61.4657C18.168 61.3256 18.5128 61.1777 18.8168 61.0244V63.1223C18.8168 63.2036 18.5128 63.7247 17.0678 64.2404C13.7167 65.4368 9.30683 65.4362 5.95722 64.2404C4.51225 63.7246 4.20824 63.2034 4.20824 63.1223V61.0244ZM20.9222 61.0244C21.2262 61.1775 21.5711 61.3256 21.9633 61.4657C25.7697 62.8243 30.6848 62.8239 34.4898 61.4657C34.8821 61.3256 35.2269 61.1777 35.5309 61.0244V63.1223C35.5309 63.2036 35.2269 63.7247 33.7819 64.2404C30.4308 65.4368 26.0208 65.4364 22.6712 64.2404C21.2262 63.7246 20.9222 63.2034 20.9222 63.1223V61.0244ZM33.7819 59.4829C30.4305 60.6793 26.0211 60.6786 22.6712 59.4829C21.2262 58.967 20.9222 58.4459 20.9222 58.3646V56.2667C21.2262 56.4198 21.5711 56.5679 21.9633 56.708C25.7697 58.0667 30.6848 58.0662 34.4898 56.708C34.8821 56.5679 35.2269 56.42 35.5309 56.2667V58.3646C35.5309 58.4459 35.2269 58.967 33.7819 59.4829ZM35.5309 53.607C35.5309 53.6882 35.2269 54.2092 33.7819 54.725C30.4305 55.9214 26.0211 55.9207 22.6712 54.725C21.2262 54.2092 20.9222 53.6881 20.9222 53.607V51.4334C21.2262 51.5865 21.5711 51.7346 21.9633 51.8747C25.7697 53.2333 30.6848 53.2329 34.4898 51.8747C34.8821 51.7346 35.2269 51.5867 35.5309 51.4334V53.607ZM22.6712 38.0646C26.0212 36.8687 30.4329 36.869 33.7819 38.0646C35.2269 38.5804 35.5309 39.1015 35.5309 39.1827C35.5309 39.2638 35.2269 39.7851 33.7819 40.3009C30.4305 41.4973 26.0211 41.4966 22.6712 40.3009C21.2262 39.7851 20.9222 39.2639 20.9222 39.1827C20.9222 39.1014 21.2262 38.5804 22.6712 38.0646ZM5.2494 51.9502C9.41687 53.402 14.7878 53.3613 18.8168 51.5091V53.6071C18.8168 53.6884 18.5128 54.2095 17.0678 54.7252C13.7164 55.9216 9.30711 55.921 5.95722 54.7252C4.51225 54.2094 4.20824 53.6882 4.20824 53.6071V51.5091C4.51211 51.6622 4.85696 51.8101 5.2494 51.9502ZM17.0678 68.9983C13.7164 70.1947 9.30711 70.1942 5.95722 68.9983C4.51225 68.4825 4.20824 67.9614 4.20824 67.8802V65.7822C8.58245 67.7499 14.4437 67.7494 18.8168 65.7822V67.8802C18.8168 67.9614 18.5128 68.4825 17.0678 68.9983ZM33.7819 68.9983C30.4305 70.1947 26.0211 70.194 22.6712 68.9983C21.2262 68.4825 20.9222 67.9614 20.9222 67.8802V65.7822C25.2964 67.7499 31.1578 67.7494 35.5309 65.7822V67.8802C35.5309 67.9614 35.2269 68.4824 33.7819 68.9983ZM50.4959 68.9983C47.1444 70.1947 42.7351 70.1942 39.3853 68.9983C37.9403 68.4825 37.6363 67.9614 37.6363 67.8802V65.7822C42.0105 67.7499 47.8718 67.7494 52.2449 65.7822V67.8802C52.2449 67.9614 51.9409 68.4825 50.4959 68.9983ZM39.3853 57.2465C42.7367 56.0501 47.146 56.0507 50.4959 57.2465C51.9409 57.7624 52.2449 58.2835 52.2449 58.3646C52.2449 58.4458 51.9409 58.967 50.4959 59.4829C47.1444 60.6793 42.7351 60.6787 39.3853 59.4829C37.9403 58.967 37.6363 58.4459 37.6363 58.3646C37.6363 58.2834 37.9403 57.7624 39.3853 57.2465Z" fill="black"/>
</g>
<defs>
<clipPath id="clip0_35_75">
<rect width="72" height="72" fill="white"/>
</clipPath>
</defs>
</svg>
