<svg width="72" height="72" viewBox="0 0 72 72" fill="none" xmlns="http://www.w3.org/2000/svg">
<g clip-path="url(#clip0_35_165)">
<path d="M67.4297 1.40625H4.57031C2.05005 1.40625 0 3.4563 0 5.97656V56.0391C0 58.5593 2.05005 60.6094 4.57031 60.6094H10.4584C11.0413 60.6094 11.5131 60.1375 11.5131 59.5547C11.5131 58.9719 11.0413 58.5 10.4584 58.5H4.57031C3.2135 58.5 2.10938 57.3959 2.10938 56.0391V16.3125H69.8906V56.0391C69.8906 57.3959 68.7865 58.5 67.4297 58.5H59.8431L58.015 56.3906H65.3203C66.6771 56.3906 67.7812 55.2865 67.7812 53.9297V29.6219C67.7812 29.0391 67.3088 28.5672 66.7266 28.5672C66.1443 28.5672 65.6719 29.0391 65.6719 29.6219V53.9297C65.6719 54.1236 65.5142 54.2812 65.3203 54.2812H56.1868L49.951 47.0858C49.2836 46.3156 48.2514 45.98 47.2588 46.2107C46.2662 46.4409 45.4878 47.1962 45.2274 48.1822L43.6179 54.2812H6.67969C6.48578 54.2812 6.32812 54.1236 6.32812 53.9297V20.8828C6.32812 20.6889 6.48578 20.5312 6.67969 20.5312H65.3203C65.5142 20.5312 65.6719 20.6889 65.6719 20.8828V24.7C65.6719 25.2823 66.1443 25.7547 66.7266 25.7547C67.3088 25.7547 67.7812 25.2823 67.7812 24.7V20.8828C67.7812 19.526 66.6771 18.4219 65.3203 18.4219H6.67969C5.32288 18.4219 4.21875 19.526 4.21875 20.8828V53.9297C4.21875 55.2865 5.32288 56.3906 6.67969 56.3906H43.0615L42.505 58.5H15.3803C14.798 58.5 14.3256 58.9719 14.3256 59.5547C14.3256 60.137 14.798 60.6094 15.3803 60.6094H41.948L40.2149 67.1786C39.9007 68.3696 40.3737 69.5588 41.4201 70.2081C41.8777 70.4921 42.3787 70.6322 42.8752 70.6322C43.5152 70.6322 44.1475 70.3998 44.6699 69.9439L51.16 64.2755C51.3193 64.1365 51.5369 64.086 51.7418 64.1415L60.0381 66.3854C61.229 66.7073 62.4216 66.2404 63.0769 65.1962C63.7328 64.1514 63.6345 62.8742 62.8264 61.9426L61.6712 60.6094H67.4297C69.95 60.6094 72 58.5593 72 56.0391V5.97656C72 3.4563 69.95 1.40625 67.4297 1.40625ZM61.29 64.075C61.2153 64.1942 60.9972 64.4601 60.5891 64.3491L52.2916 62.1052C51.405 61.8657 50.4635 62.0832 49.7725 62.6869L43.2823 68.3547C42.9642 68.6327 42.6517 68.4899 42.5325 68.4163C42.4127 68.3421 42.1463 68.1251 42.254 67.717L47.267 48.7205C47.3549 48.3876 47.6241 48.2915 47.7356 48.2657C47.7713 48.2574 47.8235 48.2487 47.8861 48.2487C48.0212 48.2487 48.2031 48.2899 48.3569 48.4678L61.2323 63.3241C61.5092 63.6438 61.3652 63.9558 61.29 64.075ZM2.10938 14.2031V5.97656C2.10938 4.61975 3.2135 3.51562 4.57031 3.51562H67.4297C68.7865 3.51562 69.8906 4.61975 69.8906 5.97656V14.2031H2.10938Z" fill="black"/>
<path d="M64.5568 5.65906H24.3067C22.5533 5.65906 21.1267 7.08563 21.1267 8.83905C21.1267 10.5919 22.5533 12.0185 24.3067 12.0185H64.5568C66.3102 12.0185 67.7368 10.5919 67.7368 8.83905C67.7368 7.08563 66.3102 5.65906 64.5568 5.65906ZM64.5568 9.90967H24.3067C23.7162 9.90967 23.2361 9.42902 23.2361 8.83905C23.2361 8.24854 23.7162 7.76843 24.3067 7.76843H64.5568C65.1473 7.76843 65.6274 8.24854 65.6274 8.83905C65.6274 9.42902 65.1467 9.90967 64.5568 9.90967Z" fill="black"/>
<path d="M15.8759 5.65906H15.8753C14.1219 5.65906 12.6953 7.08563 12.6953 8.83905C12.6953 10.5919 14.1219 12.0185 15.8759 12.0185C17.6293 12.0185 19.0558 10.5919 19.0558 8.83905C19.0558 7.08563 17.6293 5.65906 15.8759 5.65906ZM15.8753 9.90967C15.2848 9.90967 14.8047 9.42902 14.8047 8.83905C14.8047 8.24854 15.2848 7.76843 15.8753 7.76843H15.8759C16.4664 7.76843 16.9465 8.24854 16.9465 8.83905C16.9465 9.42902 16.4658 9.90967 15.8753 9.90967Z" fill="black"/>
<path d="M7.37347 5.65906H7.37238C5.61896 5.65906 4.19238 7.08563 4.19238 8.83905C4.19238 10.5919 5.61896 12.0185 7.37347 12.0185C9.12689 12.0185 10.5535 10.5919 10.5535 8.83905C10.5535 7.08563 9.12634 5.65906 7.37347 5.65906ZM7.37238 9.90967C6.78241 9.90967 6.30176 9.42902 6.30176 8.83905C6.30176 8.24854 6.78241 7.76843 7.37238 7.76843H7.37347C7.96344 7.76843 8.44409 8.24854 8.44409 8.83905C8.44354 9.42902 7.96344 9.90967 7.37238 9.90967Z" fill="black"/>
<path d="M33.2985 40.1435V26.1172C33.2985 24.7544 32.1895 23.6453 30.8266 23.6453H16.7976C15.4348 23.6453 14.3257 24.7544 14.3257 26.1172V40.1435C14.3257 41.5063 15.4348 42.6154 16.7976 42.6154H30.8266C32.1895 42.6154 33.2985 41.5063 33.2985 40.1435ZM16.7976 25.7547H30.8266C31.0266 25.7547 31.1891 25.9173 31.1891 26.1172V36.2318H16.4351V26.1172C16.4351 25.9173 16.5977 25.7547 16.7976 25.7547ZM30.8266 40.506H16.7976C16.5977 40.506 16.4351 40.3434 16.4351 40.1435V38.3412H31.1891V40.1435C31.1891 40.3434 31.0266 40.506 30.8266 40.506Z" fill="black"/>
<path d="M41.1733 23.6453C39.8105 23.6453 38.7014 24.7544 38.7014 26.1172V40.1435C38.7014 41.5063 39.8105 42.6149 41.1733 42.6149H55.2023C56.5652 42.6149 57.6743 41.5063 57.6743 40.1435V26.1172C57.6743 24.7544 56.5652 23.6453 55.2023 23.6453H41.1733ZM55.2023 40.506H41.1733C40.9734 40.506 40.8108 40.3434 40.8108 40.1435V38.3412H55.5649V40.1435C55.5649 40.3434 55.4023 40.506 55.2023 40.506ZM55.5649 26.1172V36.2318H40.8108V26.1172C40.8108 25.9173 40.9734 25.7547 41.1728 25.7547H55.2023C55.4023 25.7547 55.5649 25.9173 55.5649 26.1172Z" fill="black"/>
<path d="M31.1725 45.8185C31.1725 45.2357 30.7007 44.7638 30.1179 44.7638H17.5061C16.9233 44.7638 16.4514 45.2357 16.4514 45.8185C16.4514 46.4013 16.9233 46.8732 17.5061 46.8732H30.1179C30.7007 46.8732 31.1725 46.4013 31.1725 45.8185Z" fill="black"/>
<path d="M19.6313 49.0144C19.0491 49.0144 18.5767 49.4863 18.5767 50.0691C18.5767 50.6514 19.0491 51.1238 19.6313 51.1238H27.9925C28.5748 51.1238 29.0472 50.6514 29.0472 50.0691C29.0472 49.4863 28.5748 49.0144 27.9925 49.0144H19.6313Z" fill="black"/>
</g>
<defs>
<clipPath id="clip0_35_165">
<rect width="72" height="72" fill="white"/>
</clipPath>
</defs>
</svg>
