<svg width="18" height="18" viewBox="0 0 18 18" fill="none" xmlns="http://www.w3.org/2000/svg">
<path d="M10.5 14.25C10.3011 14.25 10.1103 14.329 9.96967 14.4697C9.82902 14.6103 9.75 14.8011 9.75 15C9.75 15.1989 9.82902 15.3897 9.96967 15.5303C10.1103 15.671 10.3011 15.75 10.5 15.75H14.25C14.6478 15.75 15.0294 15.592 15.3107 15.3107C15.592 15.0294 15.75 14.6478 15.75 14.25V3.75C15.75 3.35218 15.592 2.97064 15.3107 2.68934C15.0294 2.40804 14.6478 2.25 14.25 2.25H10.5C10.3011 2.25 10.1103 2.32902 9.96967 2.46967C9.82902 2.61032 9.75 2.80109 9.75 3C9.75 3.19891 9.82902 3.38968 9.96967 3.53033C10.1103 3.67098 10.3011 3.75 10.5 3.75H14.25V14.25H10.5Z" fill="#404040"/>
<path d="M11.7855 9.525C11.9227 9.38556 11.9997 9.19786 12 9.00225V8.99775C11.9996 8.79958 11.9206 8.60968 11.7802 8.46975L8.78025 5.46975C8.71106 5.39812 8.62831 5.34098 8.5368 5.30167C8.4453 5.26237 8.34689 5.24168 8.2473 5.24081C8.14772 5.23995 8.04896 5.25892 7.95678 5.29663C7.86461 5.33434 7.78087 5.39003 7.71045 5.46045C7.64003 5.53087 7.58434 5.61461 7.54663 5.70678C7.50892 5.79896 7.48995 5.89772 7.49081 5.9973C7.49168 6.09689 7.51237 6.1953 7.55167 6.2868C7.59098 6.37831 7.64812 6.46106 7.71975 6.53025L9.4395 8.25H2.25C2.05109 8.25 1.86032 8.32902 1.71967 8.46967C1.57902 8.61032 1.5 8.80109 1.5 9C1.5 9.19891 1.57902 9.38968 1.71967 9.53033C1.86032 9.67098 2.05109 9.75 2.25 9.75H9.4395L7.71975 11.4697C7.64812 11.5389 7.59098 11.6217 7.55167 11.7132C7.51237 11.8047 7.49168 11.9031 7.49081 12.0027C7.48995 12.1023 7.50892 12.201 7.54663 12.2932C7.58434 12.3854 7.64003 12.4691 7.71045 12.5395C7.78087 12.61 7.86461 12.6657 7.95678 12.7034C8.04896 12.7411 8.14772 12.7601 8.2473 12.7592C8.34689 12.7583 8.4453 12.7376 8.5368 12.6983C8.62831 12.659 8.71106 12.6019 8.78025 12.5303L11.7802 9.53025L11.7855 9.525Z" fill="#404040"/>
</svg>
