<svg width="26" height="26" viewBox="0 0 26 26" fill="none" xmlns="http://www.w3.org/2000/svg">
<path d="M15.1666 20.5833C14.8793 20.5833 14.6037 20.6975 14.4006 20.9006C14.1974 21.1038 14.0833 21.3793 14.0833 21.6667C14.0833 21.954 14.1974 22.2295 14.4006 22.4327C14.6037 22.6359 14.8793 22.75 15.1666 22.75H20.5833C21.1579 22.75 21.709 22.5217 22.1153 22.1154C22.5216 21.7091 22.7499 21.158 22.7499 20.5833V5.41667C22.7499 4.84203 22.5216 4.29093 22.1153 3.8846C21.709 3.47827 21.1579 3.25 20.5833 3.25H15.1666C14.8793 3.25 14.6037 3.36414 14.4006 3.5673C14.1974 3.77047 14.0833 4.04602 14.0833 4.33333C14.0833 4.62065 14.1974 4.8962 14.4006 5.09937C14.6037 5.30253 14.8793 5.41667 15.1666 5.41667H20.5833V20.5833H15.1666Z" fill="white"/>
<path d="M17.0235 13.7583C17.2216 13.5569 17.3329 13.2858 17.3333 13.0033V12.9968C17.3327 12.7105 17.2186 12.4362 17.0159 12.2341L12.6825 7.90075C12.5826 7.79728 12.4631 7.71475 12.3309 7.65798C12.1987 7.6012 12.0566 7.57131 11.9127 7.57006C11.7689 7.56881 11.6262 7.59622 11.4931 7.65069C11.36 7.70517 11.239 7.78561 11.1373 7.88732C11.0356 7.98904 10.9551 8.11 10.9007 8.24313C10.8462 8.37627 10.8188 8.51893 10.82 8.66277C10.8213 8.80661 10.8512 8.94877 10.9079 9.08094C10.9647 9.21311 11.0472 9.33265 11.1507 9.43258L13.6348 11.9167H3.24996C2.96264 11.9167 2.68709 12.0308 2.48393 12.234C2.28076 12.4371 2.16663 12.7127 2.16663 13C2.16663 13.2873 2.28076 13.5629 2.48393 13.766C2.68709 13.9692 2.96264 14.0833 3.24996 14.0833H13.6348L11.1507 16.5674C11.0472 16.6674 10.9647 16.7869 10.9079 16.9191C10.8512 17.0512 10.8213 17.1934 10.82 17.3372C10.8188 17.4811 10.8462 17.6237 10.9007 17.7569C10.9551 17.89 11.0356 18.011 11.1373 18.1127C11.239 18.2144 11.36 18.2948 11.4931 18.3493C11.6262 18.4038 11.7689 18.4312 11.9127 18.4299C12.0566 18.4287 12.1987 18.3988 12.3309 18.342C12.4631 18.2853 12.5826 18.2027 12.6825 18.0993L17.0159 13.7659L17.0235 13.7583Z" fill="white"/>
</svg>
