<svg width="767" height="630" viewBox="0 0 767 630" fill="none" xmlns="http://www.w3.org/2000/svg">
<path opacity="0.05" d="M701.708 -238.617C736.38 -229.969 763.809 -203.482 773.658 -169.13L948.603 440.978C958.456 475.327 949.23 512.325 924.407 538.031L483.512 994.591C458.688 1020.3 422.034 1030.81 387.359 1022.16L-228.482 868.617C-263.154 859.969 -290.583 833.482 -300.431 799.129L-475.377 189.022C-485.23 154.673 -476.004 117.674 -451.181 91.969L-10.2854 -364.591C14.5376 -390.296 51.1919 -400.808 85.8672 -392.164L701.708 -238.617Z" fill="url(#paint0_linear_36_1282)" fill-opacity="0.3" stroke="black" stroke-opacity="0.7" stroke-width="5"/>
<path opacity="0.1" d="M661.856 -228.625C695.22 -221.531 722.268 -197.177 732.808 -164.734L920.024 411.459C930.567 443.898 922.999 479.501 900.175 504.85L494.786 955.08C471.962 980.428 437.345 991.677 403.978 984.586L-188.627 858.623C-221.991 851.529 -249.039 827.175 -259.579 794.732L-446.796 218.539C-457.339 186.1 -449.77 150.497 -426.946 125.148L-21.5571 -325.081C1.26689 -350.43 35.8835 -361.679 69.2506 -354.588L661.856 -228.625Z" fill="url(#paint1_linear_36_1282)" fill-opacity="0.3" stroke="black" stroke-opacity="0.7" stroke-width="5"/>
<path opacity="0.14" d="M623.289 -216.557C655.28 -210.914 681.834 -188.632 692.944 -158.103L890.288 384.094C901.402 414.62 895.381 448.758 874.5 473.644L503.615 915.647C482.734 940.532 450.159 952.39 418.165 946.75L-150.064 846.555C-182.056 840.911 -208.61 818.63 -219.72 788.101L-417.064 245.903C-428.177 215.378 -422.157 181.24 -401.275 156.354L-30.3904 -285.649C-9.50901 -310.535 23.0653 -322.392 55.0597 -316.752L623.289 -216.557Z" fill="url(#paint2_linear_36_1282)" fill-opacity="0.3" stroke="black" stroke-opacity="0.7" stroke-width="5"/>
<path opacity="0.19" d="M586.107 -202.492C616.668 -198.194 642.617 -177.921 654.178 -149.304L859.517 358.927C871.08 387.54 866.496 420.152 847.496 444.471L510.024 876.415C491.024 900.734 460.49 913.071 429.927 908.777L-112.883 832.489C-143.444 828.192 -169.393 807.918 -180.954 779.302L-386.293 271.07C-397.856 242.457 -393.272 209.846 -374.272 185.527L-36.8003 -246.417C-17.8001 -270.736 12.7335 -283.073 43.2967 -278.779L586.107 -202.492Z" fill="url(#paint3_linear_36_1282)" fill-opacity="0.3" stroke="black" stroke-opacity="0.7" stroke-width="5"/>
<path opacity="0.23" d="M550.404 -186.511C579.48 -183.452 604.719 -165.115 616.611 -138.404L827.828 335.996C839.722 362.705 836.46 393.732 819.274 417.386L514.041 837.504C496.856 861.157 468.355 873.848 439.276 870.793L-77.1752 816.511C-106.252 813.453 -131.491 795.115 -143.382 768.404L-354.599 294.004C-366.493 267.296 -363.231 236.268 -346.046 212.615L-40.8118 -207.504C-23.6267 -231.157 4.87431 -243.847 33.9532 -240.792L550.404 -186.511Z" fill="url(#paint4_linear_36_1282)" fill-opacity="0.3" stroke="black" stroke-opacity="0.7" stroke-width="5"/>
<path opacity="0.28" d="M516.26 -168.703C543.805 -166.775 568.231 -150.299 580.336 -125.478L795.333 315.331C807.44 340.148 805.384 369.542 789.943 392.434L515.689 799.032C500.249 821.924 473.766 834.841 446.218 832.916L-43.0327 798.704C-70.578 796.775 -95.0047 780.3 -107.109 755.479L-322.107 314.67C-334.213 289.852 -332.157 260.459 -316.716 237.567L-42.4627 -169.031C-27.0218 -191.923 -0.538872 -204.84 27.0086 -202.915L516.26 -168.703Z" fill="url(#paint5_linear_36_1282)" fill-opacity="0.3" stroke="black" stroke-opacity="0.7" stroke-width="5"/>
<path opacity="0.32" d="M483.762 -149.159C509.734 -148.25 533.251 -133.555 545.452 -110.606L762.158 296.958C774.361 319.904 773.392 347.619 759.62 369.659L515.012 761.114C501.24 783.153 476.755 796.173 450.78 795.267L-10.5345 779.158C-36.507 778.248 -60.024 763.553 -72.2247 740.605L-288.931 333.04C-301.134 310.095 -300.165 282.379 -286.393 260.34L-41.7851 -131.115C-28.0132 -153.155 -3.52762 -166.175 22.4468 -165.269L483.762 -149.159Z" fill="url(#paint6_linear_36_1282)" fill-opacity="0.3" stroke="black" stroke-opacity="0.7" stroke-width="5"/>
<path opacity="0.37" d="M452.987 -127.97C477.352 -127.968 499.866 -114.969 512.048 -93.8672L728.421 280.902C740.605 302.001 740.604 328 728.422 349.1L512.05 723.869C499.867 744.969 477.352 757.969 452.986 757.97L20.24 757.969C-4.12409 757.967 -26.6387 744.969 -38.8207 723.867L-255.194 349.098C-267.378 327.999 -267.377 302 -255.195 280.9L-38.8221 -93.869C-26.6399 -114.969 -4.12462 -127.969 20.2412 -127.97L452.987 -127.97Z" fill="url(#paint7_linear_36_1282)" fill-opacity="0.3" stroke="black" stroke-opacity="0.7" stroke-width="5"/>
<path opacity="0.41" d="M424.009 -105.235C446.735 -106.027 468.159 -94.6351 480.209 -75.3487L694.242 267.175C706.294 286.458 707.14 310.709 696.464 330.787L506.847 687.406C496.171 707.484 475.593 720.344 452.865 721.138L49.2148 735.234C26.4888 736.026 5.06467 724.634 -6.98563 705.348L-221.018 362.825C-233.07 343.541 -233.916 319.29 -223.241 299.212L-33.623 -57.407C-22.9472 -77.4852 -2.36918 -90.3445 20.3584 -91.1392L424.009 -105.235Z" fill="url(#paint8_linear_36_1282)" fill-opacity="0.3" stroke="black" stroke-opacity="0.7" stroke-width="5"/>
<path opacity="0.46" d="M396.901 -81.0532C417.965 -82.5245 438.216 -72.6474 450.024 -55.1401L659.747 255.788C671.556 273.292 673.128 295.77 663.871 314.748L499.462 651.838C490.205 670.816 471.525 683.417 450.46 684.891L76.3267 711.053C55.2625 712.524 35.0115 702.647 23.2037 685.139L-186.52 374.212C-198.329 356.707 -199.9 334.229 -190.644 315.251L-26.2341 -21.8385C-16.9776 -40.8171 1.70217 -53.4176 22.7677 -54.8915L396.901 -81.0532Z" fill="url(#paint9_linear_36_1282)" fill-opacity="0.3" stroke="black" stroke-opacity="0.7" stroke-width="5"/>
<path opacity="0.5" d="M371.721 -55.5284C391.106 -57.5643 410.106 -49.1049 421.562 -33.3345L625.052 246.744C636.51 262.512 638.684 283.198 630.756 301.004L489.945 617.27C482.017 635.076 465.191 647.302 445.805 649.341L101.504 685.528C82.1196 687.564 63.1196 679.104 51.6628 663.334L-151.827 383.255C-163.285 367.487 -165.458 346.802 -157.53 328.995L-16.7197 12.7293C-8.7918 -5.077 8.0347 -17.3029 27.4205 -19.3412L371.721 -55.5284Z" fill="url(#paint10_linear_36_1282)" fill-opacity="0.3" stroke="black" stroke-opacity="0.7" stroke-width="5"/>
<path opacity="0.55" d="M348.534 -28.7659C366.227 -31.2511 383.904 -24.1092 394.904 -10.0284L590.283 240.044C601.284 254.123 603.937 273.003 597.244 289.569L478.364 583.808C471.67 600.374 456.647 612.113 438.952 614.6L124.694 658.766C107 661.252 89.3235 654.11 78.3233 640.029L-117.055 389.956C-128.056 375.878 -130.709 356.997 -124.016 340.431L-5.13608 46.1922C1.55706 29.6262 16.5808 17.8876 34.2751 15.4001L348.534 -28.7659Z" fill="url(#paint11_linear_36_1282)" fill-opacity="0.3" stroke="black" stroke-opacity="0.7" stroke-width="5"/>
<path opacity="0.59" d="M327.391 -0.874947C343.387 -3.69422 359.674 2.23358 370.115 14.6776L555.557 235.679C565.999 248.121 569.008 265.191 563.453 280.454L464.781 551.552C459.226 566.816 445.948 577.957 429.951 580.779L145.837 630.875C129.841 633.695 113.554 627.767 103.113 615.323L-82.3295 394.321C-92.7711 381.879 -95.7804 364.81 -90.225 349.547L8.44681 78.4481C14.0022 63.1848 27.2794 52.0433 43.2764 49.2219L327.391 -0.874947Z" fill="url(#paint12_linear_36_1282)" fill-opacity="0.3" stroke="black" stroke-opacity="0.7" stroke-width="5"/>
<path opacity="0.64" d="M308.342 28.034C322.641 24.9958 337.476 29.816 347.258 40.6809L520.996 233.637C530.779 244.499 534.021 259.758 529.504 273.661L449.269 520.6C444.751 534.503 433.159 544.942 418.859 547.982L164.885 601.965C150.586 605.004 135.751 600.184 125.969 589.319L-47.7692 396.363C-57.5518 385.5 -60.7946 370.242 -56.2773 356.339L23.9582 109.399C28.4756 95.4962 40.0678 85.0579 54.3677 82.0177L308.342 28.034Z" fill="url(#paint13_linear_36_1282)" fill-opacity="0.3" stroke="black" stroke-opacity="0.7" stroke-width="5"/>
<path opacity="0.68" d="M291.43 57.8491C304.039 54.7065 317.367 58.5283 326.394 67.8766L486.72 233.899C495.747 243.245 499.101 256.699 495.519 269.19L431.903 491.047C428.321 503.538 418.347 513.171 405.738 516.315L181.796 572.15C169.187 575.293 155.859 571.471 146.832 562.122L-13.4935 396.1C-22.5207 386.754 -25.8749 373.299 -22.2931 360.809L41.3233 138.952C44.905 126.461 54.8791 116.828 67.4881 113.684L291.43 57.8491Z" fill="url(#paint14_linear_36_1282)" fill-opacity="0.3" stroke="black" stroke-opacity="0.7" stroke-width="5"/>
<path opacity="0.73" d="M276.696 88.4566C287.626 85.3235 299.397 88.2586 307.576 96.1577L452.846 236.443C461.025 244.34 464.369 256.003 461.619 267.035L412.763 462.985C410.012 474.017 401.585 482.745 390.654 485.879L196.529 541.544C185.6 544.677 173.828 541.742 165.649 533.843L20.3792 393.558C12.1997 385.66 8.8558 373.997 11.6064 362.965L60.4621 167.016C63.2127 155.983 71.6406 147.256 82.5707 144.121L276.696 88.4566Z" fill="url(#paint15_linear_36_1282)" fill-opacity="0.3" stroke="black" stroke-opacity="0.7" stroke-width="5"/>
<path opacity="0.77" d="M264.172 119.739C273.441 116.728 283.613 118.891 290.855 125.412L419.493 241.238C426.736 247.758 429.949 257.649 427.923 267.182L391.934 436.497C389.907 446.03 382.949 453.759 373.68 456.771L209.053 510.261C199.784 513.272 189.613 511.11 182.37 504.588L53.7326 388.763C46.4896 382.242 43.2763 372.351 45.3025 362.819L81.2917 193.503C83.3179 183.97 90.2764 176.242 99.5455 173.23L264.172 119.739Z" fill="url(#paint16_linear_36_1282)" fill-opacity="0.3" stroke="black" stroke-opacity="0.7" stroke-width="5"/>
<path opacity="0.82" d="M253.884 151.581C261.516 148.803 270.05 150.308 276.271 155.529L386.772 248.25C392.994 253.47 395.958 261.614 394.548 269.612L369.499 411.669C368.089 419.667 362.518 426.306 354.886 429.084L219.337 478.42C211.705 481.197 203.171 479.692 196.949 474.471L86.4483 381.75C80.2266 376.53 77.2628 368.387 78.6731 360.389L103.722 218.332C105.132 210.334 110.702 203.695 118.334 200.916L253.884 151.581Z" fill="url(#paint17_linear_36_1282)" fill-opacity="0.3" stroke="black" stroke-opacity="0.7" stroke-width="5"/>
<path opacity="0.86" d="M245.861 183.861C251.885 181.427 258.751 182.392 263.871 186.393L354.806 257.439C359.926 261.439 362.523 267.867 361.619 274.301L345.559 388.577C344.654 395.011 340.386 400.474 334.362 402.908L227.366 446.138C221.342 448.571 214.476 447.606 209.356 443.606L118.421 372.559C113.301 368.559 110.704 362.131 111.608 355.697L127.668 241.421C128.572 234.987 132.841 229.524 138.865 227.09L245.861 183.861Z" fill="url(#paint18_linear_36_1282)" fill-opacity="0.3" stroke="black" stroke-opacity="0.7" stroke-width="5"/>
<path opacity="0.91" d="M240.113 216.463C244.565 214.481 249.736 215.025 253.678 217.889L323.698 268.762C327.641 271.626 329.756 276.376 329.246 281.222L320.199 367.297C319.69 372.143 316.634 376.35 312.182 378.332L233.115 413.535C228.664 415.517 223.493 414.973 219.55 412.109L149.53 361.236C145.588 358.372 143.473 353.622 143.982 348.776L153.029 262.701C153.539 257.855 156.595 253.648 161.047 251.666L240.113 216.463Z" fill="url(#paint19_linear_36_1282)" fill-opacity="0.3" stroke="black" stroke-opacity="0.7" stroke-width="5"/>
<path opacity="0.95" d="M236.651 249.268C239.571 247.844 243.028 248.086 245.722 249.902L293.557 282.168C296.25 283.984 297.77 287.1 297.543 290.34L293.518 347.899C293.292 351.14 291.353 354.014 288.433 355.438L236.573 380.732C233.653 382.156 230.195 381.914 227.502 380.097L179.667 347.832C176.974 346.016 175.454 342.9 175.681 339.659L179.706 282.1C179.932 278.86 181.871 275.986 184.791 274.561L236.651 249.268Z" fill="url(#paint20_linear_36_1282)" fill-opacity="0.3" stroke="black" stroke-opacity="0.7" stroke-width="5"/>
<path d="M235.484 282.152C236.918 281.39 238.651 281.45 240.028 282.311L264.494 297.599C265.872 298.46 266.685 299.99 266.629 301.613L265.622 330.446C265.565 332.069 264.647 333.539 263.212 334.302L237.74 347.846C236.305 348.608 234.573 348.548 233.196 347.687L208.73 332.399C207.352 331.538 206.539 330.008 206.595 328.384L207.602 299.552C207.659 297.929 208.577 296.459 210.011 295.696L235.484 282.152Z" fill="url(#paint21_linear_36_1282)" fill-opacity="0.3" stroke="black" stroke-opacity="0.7" stroke-width="5"/>
<defs>
<linearGradient id="paint0_linear_36_1282" x1="193.581" y1="1294.82" x2="-641.233" y2="-122.371" gradientUnits="userSpaceOnUse">
<stop/>
<stop offset="0.14"/>
<stop offset="0.36" stop-color="#21192F"/>
<stop offset="0.54" stop-color="#161021"/>
<stop offset="0.76" stop-color="#0B0813"/>
<stop offset="1"/>
</linearGradient>
<linearGradient id="paint1_linear_36_1282" x1="228.204" y1="1251.15" x2="-615.389" y2="-72.9927" gradientUnits="userSpaceOnUse">
<stop/>
<stop offset="0.14"/>
<stop offset="0.36" stop-color="#21192F"/>
<stop offset="0.54" stop-color="#161021"/>
<stop offset="0.76" stop-color="#0B0813"/>
<stop offset="1"/>
</linearGradient>
<linearGradient id="paint2_linear_36_1282" x1="259.723" y1="1206.31" x2="-587.221" y2="-25.9734" gradientUnits="userSpaceOnUse">
<stop/>
<stop offset="0.14"/>
<stop offset="0.36" stop-color="#21192F"/>
<stop offset="0.54" stop-color="#161021"/>
<stop offset="0.76" stop-color="#0B0813"/>
<stop offset="1"/>
</linearGradient>
<linearGradient id="paint3_linear_36_1282" x1="288.104" y1="1160.46" x2="-556.858" y2="18.5863" gradientUnits="userSpaceOnUse">
<stop/>
<stop offset="0.14"/>
<stop offset="0.36" stop-color="#21192F"/>
<stop offset="0.54" stop-color="#161021"/>
<stop offset="0.76" stop-color="#0B0813"/>
<stop offset="1"/>
</linearGradient>
<linearGradient id="paint4_linear_36_1282" x1="313.32" y1="1113.77" x2="-524.436" y2="60.5935" gradientUnits="userSpaceOnUse">
<stop/>
<stop offset="0.14"/>
<stop offset="0.36" stop-color="#21192F"/>
<stop offset="0.54" stop-color="#161021"/>
<stop offset="0.76" stop-color="#0B0813"/>
<stop offset="1"/>
</linearGradient>
<linearGradient id="paint5_linear_36_1282" x1="335.342" y1="1066.41" x2="-490.104" y2="99.9586" gradientUnits="userSpaceOnUse">
<stop/>
<stop offset="0.14"/>
<stop offset="0.36" stop-color="#21192F"/>
<stop offset="0.54" stop-color="#161021"/>
<stop offset="0.76" stop-color="#0B0813"/>
<stop offset="1"/>
</linearGradient>
<linearGradient id="paint6_linear_36_1282" x1="354.159" y1="1018.53" x2="-454.002" y2="136.6" gradientUnits="userSpaceOnUse">
<stop/>
<stop offset="0.14"/>
<stop offset="0.36" stop-color="#21192F"/>
<stop offset="0.54" stop-color="#161021"/>
<stop offset="0.76" stop-color="#0B0813"/>
<stop offset="1"/>
</linearGradient>
<linearGradient id="paint7_linear_36_1282" x1="369.764" y1="970.315" x2="-416.281" y2="170.449" gradientUnits="userSpaceOnUse">
<stop/>
<stop offset="0.14"/>
<stop offset="0.36" stop-color="#21192F"/>
<stop offset="0.54" stop-color="#161021"/>
<stop offset="0.76" stop-color="#0B0813"/>
<stop offset="1"/>
</linearGradient>
<linearGradient id="paint8_linear_36_1282" x1="382.155" y1="921.917" x2="-377.094" y2="201.434" gradientUnits="userSpaceOnUse">
<stop/>
<stop offset="0.14"/>
<stop offset="0.36" stop-color="#21192F"/>
<stop offset="0.54" stop-color="#161021"/>
<stop offset="0.76" stop-color="#0B0813"/>
<stop offset="1"/>
</linearGradient>
<linearGradient id="paint9_linear_36_1282" x1="391.347" y1="873.506" x2="-336.589" y2="229.498" gradientUnits="userSpaceOnUse">
<stop/>
<stop offset="0.14"/>
<stop offset="0.36" stop-color="#21192F"/>
<stop offset="0.54" stop-color="#161021"/>
<stop offset="0.76" stop-color="#0B0813"/>
<stop offset="1"/>
</linearGradient>
<linearGradient id="paint10_linear_36_1282" x1="397.348" y1="825.245" x2="-294.93" y2="254.589" gradientUnits="userSpaceOnUse">
<stop/>
<stop offset="0.14"/>
<stop offset="0.36" stop-color="#21192F"/>
<stop offset="0.54" stop-color="#161021"/>
<stop offset="0.76" stop-color="#0B0813"/>
<stop offset="1"/>
</linearGradient>
<linearGradient id="paint11_linear_36_1282" x1="400.188" y1="777.299" x2="-252.269" y2="276.662" gradientUnits="userSpaceOnUse">
<stop/>
<stop offset="0.14"/>
<stop offset="0.36" stop-color="#21192F"/>
<stop offset="0.54" stop-color="#161021"/>
<stop offset="0.76" stop-color="#0B0813"/>
<stop offset="1"/>
</linearGradient>
<linearGradient id="paint12_linear_36_1282" x1="399.895" y1="729.826" x2="-208.771" y2="295.679" gradientUnits="userSpaceOnUse">
<stop/>
<stop offset="0.14"/>
<stop offset="0.36" stop-color="#21192F"/>
<stop offset="0.54" stop-color="#161021"/>
<stop offset="0.76" stop-color="#0B0813"/>
<stop offset="1"/>
</linearGradient>
<linearGradient id="paint13_linear_36_1282" x1="396.506" y1="682.987" x2="-164.595" y2="311.611" gradientUnits="userSpaceOnUse">
<stop/>
<stop offset="0.14"/>
<stop offset="0.36" stop-color="#21192F"/>
<stop offset="0.54" stop-color="#161021"/>
<stop offset="0.76" stop-color="#0B0813"/>
<stop offset="1"/>
</linearGradient>
<linearGradient id="paint14_linear_36_1282" x1="390.069" y1="636.94" x2="-119.905" y2="324.435" gradientUnits="userSpaceOnUse">
<stop/>
<stop offset="0.14"/>
<stop offset="0.36" stop-color="#21192F"/>
<stop offset="0.54" stop-color="#161021"/>
<stop offset="0.76" stop-color="#0B0813"/>
<stop offset="1"/>
</linearGradient>
<linearGradient id="paint15_linear_36_1282" x1="380.636" y1="591.84" x2="-74.8625" y2="334.138" gradientUnits="userSpaceOnUse">
<stop/>
<stop offset="0.14"/>
<stop offset="0.36" stop-color="#21192F"/>
<stop offset="0.54" stop-color="#161021"/>
<stop offset="0.76" stop-color="#0B0813"/>
<stop offset="1"/>
</linearGradient>
<linearGradient id="paint16_linear_36_1282" x1="368.267" y1="547.839" x2="-29.6308" y2="340.712" gradientUnits="userSpaceOnUse">
<stop/>
<stop offset="0.14"/>
<stop offset="0.36" stop-color="#21192F"/>
<stop offset="0.54" stop-color="#161021"/>
<stop offset="0.76" stop-color="#0B0813"/>
<stop offset="1"/>
</linearGradient>
<linearGradient id="paint17_linear_36_1282" x1="353.027" y1="505.085" x2="15.6237" y2="344.157" gradientUnits="userSpaceOnUse">
<stop/>
<stop offset="0.14"/>
<stop offset="0.36" stop-color="#21192F"/>
<stop offset="0.54" stop-color="#161021"/>
<stop offset="0.76" stop-color="#0B0813"/>
<stop offset="1"/>
</linearGradient>
<linearGradient id="paint18_linear_36_1282" x1="334.997" y1="463.724" x2="60.7458" y2="344.48" gradientUnits="userSpaceOnUse">
<stop/>
<stop offset="0.14"/>
<stop offset="0.36" stop-color="#21192F"/>
<stop offset="0.54" stop-color="#161021"/>
<stop offset="0.76" stop-color="#0B0813"/>
<stop offset="1"/>
</linearGradient>
<linearGradient id="paint19_linear_36_1282" x1="314.25" y1="423.9" x2="105.566" y2="341.699" gradientUnits="userSpaceOnUse">
<stop/>
<stop offset="0.14"/>
<stop offset="0.36" stop-color="#21192F"/>
<stop offset="0.54" stop-color="#161021"/>
<stop offset="0.76" stop-color="#0B0813"/>
<stop offset="1"/>
</linearGradient>
<linearGradient id="paint20_linear_36_1282" x1="290.871" y1="385.75" x2="149.921" y2="335.838" gradientUnits="userSpaceOnUse">
<stop/>
<stop offset="0.14"/>
<stop offset="0.36" stop-color="#21192F"/>
<stop offset="0.54" stop-color="#161021"/>
<stop offset="0.76" stop-color="#0B0813"/>
<stop offset="1"/>
</linearGradient>
<linearGradient id="paint21_linear_36_1282" x1="264.96" y1="349.406" x2="193.656" y2="326.925" gradientUnits="userSpaceOnUse">
<stop/>
<stop offset="0.14"/>
<stop offset="0.36" stop-color="#21192F"/>
<stop offset="0.54" stop-color="#161021"/>
<stop offset="0.76" stop-color="#0B0813"/>
<stop offset="1"/>
</linearGradient>
</defs>
</svg>
