<svg width="66" height="66" viewBox="0 0 66 66" fill="none" xmlns="http://www.w3.org/2000/svg">
<g clip-path="url(#clip0_35_58)">
<path d="M7.73444 30.7106C9.03862 32.9548 11.1781 34.5914 13.6853 35.2629C16.1926 35.9344 18.8637 35.5862 21.1149 34.2942L30.3601 28.9575C31.8963 29.8691 33.6467 30.357 35.433 30.3715C37.2192 30.386 38.9774 29.9266 40.5282 29.04L54.5274 20.9601C59.266 18.3511 61.0088 11.8491 58.209 7.2239C56.8734 4.91654 54.6772 3.23312 52.1021 2.54294C49.5269 1.85276 46.7832 2.21217 44.4727 3.54233L35.1554 8.92546C33.6923 8.12736 32.0482 7.71994 30.3818 7.74252C28.7154 7.7651 27.083 8.21692 25.6421 9.05436L11.318 17.325C6.70319 19.8619 5.00163 26.2092 7.73444 30.7106ZM39.7238 14.025L47.6335 9.45655C48.2958 9.05187 49.0827 8.90196 49.8474 9.03479C50.6121 9.16761 51.3024 9.57411 51.7894 10.1784C52.0522 10.5292 52.2379 10.9314 52.3347 11.3588C52.4314 11.7862 52.4369 12.2292 52.3507 12.6589C52.2646 13.0886 52.0888 13.4952 51.8348 13.8524C51.5808 14.2095 51.2544 14.509 50.8768 14.7314C50.7737 14.7881 43.6013 18.9286 39.6104 21.2334C40.5552 18.9307 40.5957 16.3563 39.7238 14.025ZM12.0915 18.6656L26.4155 10.4001C27.4822 9.77889 28.6761 9.40825 29.907 9.31624C31.138 9.22424 32.3737 9.41327 33.5208 9.86905L30.4838 11.6222C29.547 12.1503 28.708 12.8358 28.0037 13.6486L14.154 21.6408C13.1454 22.2008 12.3754 23.1091 11.9882 24.1958C11.601 25.2825 11.623 26.4731 12.0502 27.5447C12.3099 28.1482 12.6938 28.6903 13.1769 29.1356C13.66 29.5809 14.2315 29.9194 14.8542 30.129C15.4768 30.3387 16.1367 30.4148 16.7908 30.3524C17.4448 30.2901 18.0784 30.0906 18.6502 29.767L32.6855 21.6614C33.5218 21.169 34.1911 20.4369 34.6066 19.5599C35.0221 18.6829 35.1648 17.7014 35.0162 16.7423L38.3677 14.8087C38.9629 16.6392 38.9157 18.6178 38.2342 20.4179C37.5526 22.2179 36.2774 23.7315 34.6191 24.7087L20.3415 32.9536C19.4026 33.5112 18.3624 33.877 17.2812 34.0296C16.1999 34.1821 15.0991 34.1186 14.0426 33.8425C12.9861 33.5664 11.9949 33.0834 11.1265 32.4213C10.2581 31.7593 9.52982 30.9315 8.98379 29.9858C8.43776 29.0402 8.0849 27.9955 7.94566 26.9125C7.80642 25.8294 7.88358 24.7295 8.17266 23.6765C8.46174 22.6235 8.95699 21.6383 9.62969 20.7781C10.3024 19.918 11.1392 19.1999 12.0915 18.6656ZM33.526 17.6447C33.5047 18.1029 33.3878 18.5516 33.1826 18.9619C32.9775 19.3721 32.6887 19.7349 32.3349 20.0269C32.3477 19.567 32.461 19.1154 32.6667 18.7039C32.8725 18.2924 33.1658 17.9309 33.526 17.6447ZM26.034 23.7187L17.8768 28.4264C17.4952 28.6425 17.0723 28.7756 16.6358 28.8172C16.1992 28.8588 15.7588 28.8079 15.3433 28.6678C14.9277 28.5276 14.5464 28.3014 14.2242 28.004C13.902 27.7065 13.6462 27.3444 13.4733 26.9414C13.2017 26.2166 13.199 25.4183 13.4658 24.6917C13.7326 23.965 14.2512 23.3582 14.9274 22.9814L26.2608 16.4381C25.2823 18.7523 25.2014 21.3481 26.034 23.7187Z" fill="#171717"/>
<path d="M48.7081 64.9641C48.6672 65.0809 48.6547 65.2058 48.6717 65.3283C48.6887 65.4509 48.7347 65.5677 48.8058 65.6689C48.8769 65.7702 48.9712 65.8531 49.0807 65.9106C49.1902 65.9682 49.3119 65.9988 49.4357 66H63.306C63.871 65.9995 64.4166 65.7934 64.8409 65.4201C65.2651 65.0469 65.539 64.5319 65.6113 63.9715C65.9551 61.0018 65.2351 58.0064 63.5791 55.5174C61.9232 53.0284 59.4387 51.2069 56.5668 50.3766C57.6657 49.6358 58.4977 48.5617 58.9404 47.3126C59.383 46.0634 59.4129 44.7051 59.0256 43.4377C58.6383 42.1703 57.8543 41.0607 56.789 40.2723C55.7237 39.4839 54.4335 39.0584 53.1082 39.0584C51.7829 39.0584 50.4927 39.4839 49.4274 40.2723C48.3621 41.0607 47.5781 42.1703 47.1908 43.4377C46.8035 44.7051 46.8334 46.0634 47.2761 47.3126C47.7187 48.5617 48.5507 49.6358 49.6497 50.3766C48.5095 50.7027 47.4214 51.1888 46.4177 51.8203C46.3297 51.8764 46.2538 51.9496 46.1946 52.0356C46.1355 52.1216 46.0942 52.2187 46.0733 52.321C46.0525 52.4232 46.0524 52.5287 46.0731 52.631C46.0938 52.7333 46.1349 52.8304 46.1939 52.9165C48.4876 56.2047 49.4545 60.238 48.901 64.2087C48.8629 64.4665 48.7982 64.7196 48.7081 64.9641Z" fill="#171717"/>
<path d="M19.6031 51.7791C18.6148 51.1654 17.546 50.6921 16.4273 50.373C17.5262 49.6321 18.3582 48.5581 18.8008 47.3089C19.2434 46.0598 19.2732 44.7015 18.8859 43.4341C18.4986 42.1667 17.7146 41.0572 16.6493 40.2688C15.584 39.4805 14.2938 39.055 12.9685 39.055C11.6433 39.055 10.353 39.4805 9.28778 40.2688C8.22251 41.0572 7.43851 42.1667 7.05119 43.4341C6.66387 44.7015 6.6937 46.0598 7.1363 47.3089C7.5789 48.5581 8.41087 49.6321 9.50972 50.373C6.63696 51.2032 4.15163 53.0251 2.49545 55.5149C0.839262 58.0047 0.119509 61.0011 0.464112 63.9715C0.53658 64.5317 0.810336 65.0464 1.23432 65.4197C1.65831 65.7929 2.20358 65.9992 2.76844 66H16.5645C16.6882 65.9988 16.8098 65.9682 16.9193 65.9106C17.0288 65.8531 17.123 65.7703 17.1941 65.6691C17.2652 65.5679 17.3112 65.4512 17.3282 65.3287C17.3452 65.2062 17.3328 65.0814 17.292 64.9646C17.202 64.7176 17.1374 64.4621 17.0992 64.202C16.5454 60.2179 17.5219 56.1718 19.832 52.8789C19.8913 52.7923 19.9325 52.6947 19.9531 52.5918C19.9737 52.4889 19.9733 52.3829 19.952 52.2802C19.9306 52.1775 19.8886 52.0801 19.8287 51.994C19.7687 51.9079 19.692 51.8348 19.6031 51.7791Z" fill="#171717"/>
<path d="M20.9345 66H45.0657C45.6274 65.9951 46.1686 65.7889 46.5912 65.4188C47.0137 65.0488 47.2896 64.5395 47.3685 63.9834C47.4607 63.341 47.5073 62.693 47.5083 62.0441C47.504 58.8424 46.4426 55.7317 44.489 53.195C42.5354 50.6584 39.7988 48.8378 36.7044 48.016C38.0111 47.2098 39.0191 45.9994 39.5754 44.5684C40.1318 43.1373 40.2061 41.5639 39.7871 40.0868C39.3681 38.6097 38.4787 37.3096 37.2538 36.3839C36.0289 35.4581 34.5355 34.9572 33.0001 34.9572C31.4647 34.9572 29.9713 35.4581 28.7464 36.3839C27.5215 37.3096 26.6321 38.6097 26.2131 40.0868C25.7941 41.5639 25.8684 43.1373 26.4248 44.5684C26.9812 45.9994 27.9892 47.2098 29.2959 48.016C26.2012 48.8376 23.4645 50.658 21.5107 53.1947C19.557 55.7314 18.4956 58.8423 18.4915 62.0441C18.4924 62.693 18.5389 63.341 18.6307 63.9834C18.7098 64.5396 18.9858 65.049 19.4085 65.419C19.8312 65.7891 20.3727 65.9952 20.9345 66Z" fill="#171717"/>
<path d="M11.5881 12.4265C11.7845 12.4791 11.9893 12.4925 12.1908 12.4659C12.3924 12.4394 12.5867 12.3734 12.7628 12.2717C12.9388 12.17 13.0931 12.0347 13.2168 11.8734C13.3405 11.7121 13.4313 11.528 13.4838 11.3316C13.5364 11.1353 13.5498 10.9305 13.5232 10.7289C13.4967 10.5274 13.4307 10.333 13.329 10.157C13.2273 9.98097 13.092 9.82669 12.9307 9.70297C12.7694 9.57925 12.5853 9.4885 12.3889 9.43592L8.40467 8.3691C8.2083 8.31652 8.0035 8.30313 7.80196 8.3297C7.60042 8.35627 7.40609 8.42228 7.23005 8.52395C7.05402 8.62562 6.89974 8.76097 6.77602 8.92227C6.65229 9.08357 6.56155 9.26766 6.50897 9.46403C6.4564 9.66039 6.44301 9.86519 6.46958 10.0667C6.49615 10.2683 6.56215 10.4626 6.66383 10.6386C6.7655 10.8147 6.90085 10.969 7.06215 11.0927C7.22345 11.2164 7.40754 11.3071 7.6039 11.3597L11.5881 12.4265Z" fill="#171717"/>
<path d="M21.2274 6.85781L22.2948 2.87357C22.3473 2.6772 22.3607 2.4724 22.3341 2.27086C22.3076 2.06932 22.2416 1.87499 22.1399 1.69896C22.0382 1.52293 21.9029 1.36864 21.7416 1.24492C21.5803 1.1212 21.3962 1.03046 21.1998 0.977877C21.0035 0.925298 20.7987 0.911911 20.5971 0.938481C20.3956 0.96505 20.2012 1.03106 20.0252 1.13273C19.8492 1.2344 19.6949 1.36975 19.5712 1.53105C19.4474 1.69235 19.3567 1.87644 19.3041 2.07281L18.2363 6.05704C18.1837 6.25341 18.1703 6.45821 18.1969 6.65975C18.2234 6.86129 18.2894 7.05562 18.3911 7.23166C18.4928 7.40769 18.6281 7.56197 18.7894 7.68569C18.9507 7.80942 19.1348 7.90016 19.3312 7.95274C19.5276 8.00531 19.7324 8.0187 19.9339 7.99213C20.1354 7.96556 20.3298 7.89956 20.5058 7.79788C20.6818 7.69621 20.8361 7.56086 20.9599 7.39956C21.0836 7.23826 21.1748 7.05417 21.2274 6.85781Z" fill="#171717"/>
<path d="M54.412 24.6984C54.2156 24.6458 54.0108 24.6325 53.8093 24.659C53.6077 24.6856 53.4134 24.7516 53.2374 24.8533C53.0613 24.955 52.9071 25.0903 52.7833 25.2516C52.6596 25.4129 52.5689 25.597 52.5163 25.7934C52.4637 25.9897 52.4503 26.1945 52.4769 26.3961C52.5035 26.5976 52.5695 26.7919 52.6712 26.968C52.7728 27.144 52.9082 27.2983 53.0695 27.422C53.2308 27.5457 53.4149 27.6365 53.6112 27.6891L57.5955 28.7569C57.7918 28.8095 57.9966 28.8229 58.1982 28.7963C58.3997 28.7697 58.594 28.7037 58.7701 28.6021C58.9461 28.5004 59.1004 28.365 59.2241 28.2037C59.3478 28.0424 59.4386 27.8583 59.4912 27.662C59.5437 27.4656 59.5571 27.2608 59.5306 27.0593C59.504 26.8577 59.438 26.6634 59.3363 26.4874C59.2346 26.3113 59.0993 26.1571 58.938 26.0333C58.7767 25.9096 58.5926 25.8189 58.3962 25.7663L54.412 24.6984Z" fill="#171717"/>
<path d="M44.7729 30.2672L43.7055 34.2514C43.5993 34.648 43.655 35.0705 43.8604 35.426C44.0657 35.7815 44.4039 36.0409 44.8004 36.1471C45.197 36.2533 45.6195 36.1976 45.9751 35.9923C46.3306 35.7869 46.5899 35.4488 46.6961 35.0522L47.764 31.0679C47.8166 30.8716 47.83 30.6668 47.8034 30.4652C47.7768 30.2637 47.7108 30.0694 47.6091 29.8933C47.5075 29.7173 47.3721 29.563 47.2108 29.4393C47.0495 29.3156 46.8654 29.2248 46.6691 29.1722C46.2725 29.0661 45.85 29.1218 45.4945 29.3271C45.1389 29.5324 44.879 29.8706 44.7729 30.2672Z" fill="#171717"/>
</g>
<defs>
<clipPath id="clip0_35_58">
<rect width="66" height="66" fill="white"/>
</clipPath>
</defs>
</svg>
