<svg width="80" height="80" viewBox="0 0 80 80" fill="none" xmlns="http://www.w3.org/2000/svg">
<path d="M77.2656 15.7031H74.375C73.7278 15.7031 73.2031 16.2278 73.2031 16.875C73.2031 17.5222 73.7278 18.0469 74.375 18.0469H77.2656C77.4809 18.0469 77.6562 18.2222 77.6562 18.4375V59.0625C77.6562 59.2778 77.4809 59.4531 77.2656 59.4531H57.4219V44.8438C57.4219 44.1966 56.8972 43.6719 56.25 43.6719C55.6028 43.6719 55.0781 44.1966 55.0781 44.8438V63.75C55.0781 63.9653 54.9028 64.1406 54.6875 64.1406H50.3906V63.9062C50.3906 61.9677 48.8136 60.3906 46.875 60.3906H33.125C31.1864 60.3906 29.6094 61.9677 29.6094 63.9062V64.1406H25.3125C25.0972 64.1406 24.9219 63.9653 24.9219 63.75V21.3281H55.0781V39.375C55.0781 40.0222 55.6028 40.5469 56.25 40.5469C56.8972 40.5469 57.4219 40.0222 57.4219 39.375V18.0469H68.9062C69.5534 18.0469 70.0781 17.5222 70.0781 16.875C70.0781 16.2278 69.5534 15.7031 68.9062 15.7031H57.4219V12.5C57.4219 10.9923 56.1952 9.76562 54.6875 9.76562H25.3125C23.8048 9.76562 22.5781 10.9923 22.5781 12.5V15.7031H2.73438C1.22672 15.7031 0 16.9298 0 18.4375V59.0625C0 60.5702 1.22672 61.7969 2.73438 61.7969H12.5C13.1472 61.7969 13.6719 61.2722 13.6719 60.625C13.6719 59.9778 13.1472 59.4531 12.5 59.4531H2.73438C2.51906 59.4531 2.34375 59.2778 2.34375 59.0625V18.4375C2.34375 18.2222 2.51906 18.0469 2.73438 18.0469H22.5781V59.4531H17.9688C17.3216 59.4531 16.7969 59.9778 16.7969 60.625C16.7969 61.2722 17.3216 61.7969 17.9688 61.7969H22.5781V63.75C22.5781 65.2577 23.8048 66.4844 25.3125 66.4844H29.6094V66.7188C29.6094 68.6573 31.1864 70.2344 33.125 70.2344H46.875C48.8136 70.2344 50.3906 68.6573 50.3906 66.7188V66.4844H54.6875C56.1952 66.4844 57.4219 65.2577 57.4219 63.75V61.7969H77.2656C78.7733 61.7969 80 60.5702 80 59.0625V18.4375C80 16.9298 78.7733 15.7031 77.2656 15.7031ZM24.9219 12.5C24.9219 12.2847 25.0972 12.1094 25.3125 12.1094H54.6875C54.9028 12.1094 55.0781 12.2847 55.0781 12.5V18.9844H24.9219V12.5ZM48.0469 66.7188C48.0469 67.365 47.5213 67.8906 46.875 67.8906H33.125C32.4787 67.8906 31.9531 67.365 31.9531 66.7188V63.9062C31.9531 63.26 32.4787 62.7344 33.125 62.7344H46.875C47.5213 62.7344 48.0469 63.26 48.0469 63.9062V66.7188Z" fill="black"/>
<path d="M50.0781 25.7031H38.9844C38.3372 25.7031 37.8125 26.2278 37.8125 26.875C37.8125 27.5222 38.3372 28.0469 38.9844 28.0469H50.0781C50.7253 28.0469 51.25 27.5222 51.25 26.875C51.25 26.2278 50.7253 25.7031 50.0781 25.7031Z" fill="black"/>
<path d="M50.0781 29.8438H38.9844C38.3372 29.8438 37.8125 30.3684 37.8125 31.0156C37.8125 31.6628 38.3372 32.1875 38.9844 32.1875H50.0781C50.7253 32.1875 51.25 31.6628 51.25 31.0156C51.25 30.3684 50.7253 29.8438 50.0781 29.8438Z" fill="black"/>
<path d="M50.0781 33.9844H38.9844C38.3372 33.9844 37.8125 34.5091 37.8125 35.1562C37.8125 35.8034 38.3372 36.3281 38.9844 36.3281H50.0781C50.7253 36.3281 51.25 35.8034 51.25 35.1562C51.25 34.5091 50.7253 33.9844 50.0781 33.9844Z" fill="black"/>
<path d="M50.0781 40.2344H33.75C33.1028 40.2344 32.5781 40.7591 32.5781 41.4062C32.5781 42.0534 33.1028 42.5781 33.75 42.5781H50.0781C50.7253 42.5781 51.25 42.0534 51.25 41.4062C51.25 40.7591 50.7253 40.2344 50.0781 40.2344Z" fill="black"/>
<path d="M50.0781 45.2344H33.75C33.1028 45.2344 32.5781 45.7591 32.5781 46.4062C32.5781 47.0534 33.1028 47.5781 33.75 47.5781H50.0781C50.7253 47.5781 51.25 47.0534 51.25 46.4062C51.25 45.7591 50.7253 45.2344 50.0781 45.2344Z" fill="black"/>
<path d="M50.0781 50.2344H33.75C33.1028 50.2344 32.5781 50.7591 32.5781 51.4062C32.5781 52.0534 33.1028 52.5781 33.75 52.5781H50.0781C50.7253 52.5781 51.25 52.0534 51.25 51.4062C51.25 50.7591 50.7253 50.2344 50.0781 50.2344Z" fill="black"/>
<path d="M50.0781 55.2344H33.75C33.1028 55.2344 32.5781 55.7591 32.5781 56.4062C32.5781 57.0534 33.1028 57.5781 33.75 57.5781H50.0781C50.7253 57.5781 51.25 57.0534 51.25 56.4062C51.25 55.7591 50.7253 55.2344 50.0781 55.2344Z" fill="black"/>
<path d="M30.2344 40.2344H29.9219C29.2747 40.2344 28.75 40.7591 28.75 41.4062C28.75 42.0534 29.2747 42.5781 29.9219 42.5781H30.2344C30.8816 42.5781 31.4062 42.0534 31.4062 41.4062C31.4062 40.7591 30.8816 40.2344 30.2344 40.2344Z" fill="black"/>
<path d="M30.2344 45.2344H29.9219C29.2747 45.2344 28.75 45.7591 28.75 46.4062C28.75 47.0534 29.2747 47.5781 29.9219 47.5781H30.2344C30.8816 47.5781 31.4062 47.0534 31.4062 46.4062C31.4062 45.7591 30.8816 45.2344 30.2344 45.2344Z" fill="black"/>
<path d="M30.2344 50.2344H29.9219C29.2747 50.2344 28.75 50.7591 28.75 51.4062C28.75 52.0534 29.2747 52.5781 29.9219 52.5781H30.2344C30.8816 52.5781 31.4062 52.0534 31.4062 51.4062C31.4062 50.7591 30.8816 50.2344 30.2344 50.2344Z" fill="black"/>
<path d="M30.2344 55.2344H29.9219C29.2747 55.2344 28.75 55.7591 28.75 56.4062C28.75 57.0534 29.2747 57.5781 29.9219 57.5781H30.2344C30.8816 57.5781 31.4062 57.0534 31.4062 56.4062C31.4062 55.7591 30.8816 55.2344 30.2344 55.2344Z" fill="black"/>
<path d="M45 64.1406H35C34.3528 64.1406 33.8281 64.6653 33.8281 65.3125C33.8281 65.9597 34.3528 66.4844 35 66.4844H45C45.6472 66.4844 46.1719 65.9597 46.1719 65.3125C46.1719 64.6653 45.6472 64.1406 45 64.1406Z" fill="black"/>
<path d="M73.75 46.5625H64.9219C64.2747 46.5625 63.75 47.0872 63.75 47.7344C63.75 48.3816 64.2747 48.9062 64.9219 48.9062H73.75C74.3972 48.9062 74.9219 48.3816 74.9219 47.7344C74.9219 47.0872 74.3972 46.5625 73.75 46.5625Z" fill="black"/>
<path d="M61.4062 46.5625H61.0938C60.4466 46.5625 59.9219 47.0872 59.9219 47.7344C59.9219 48.3816 60.4466 48.9062 61.0938 48.9062H61.4062C62.0534 48.9062 62.5781 48.3816 62.5781 47.7344C62.5781 47.0872 62.0534 46.5625 61.4062 46.5625Z" fill="black"/>
<path d="M73.75 51.5625H64.9219C64.2747 51.5625 63.75 52.0872 63.75 52.7344C63.75 53.3816 64.2747 53.9062 64.9219 53.9062H73.75C74.3972 53.9062 74.9219 53.3816 74.9219 52.7344C74.9219 52.0872 74.3972 51.5625 73.75 51.5625Z" fill="black"/>
<path d="M61.4062 51.5625H61.0938C60.4466 51.5625 59.9219 52.0872 59.9219 52.7344C59.9219 53.3816 60.4466 53.9062 61.0938 53.9062H61.4062C62.0534 53.9062 62.5781 53.3816 62.5781 52.7344C62.5781 52.0872 62.0534 51.5625 61.4062 51.5625Z" fill="black"/>
<path d="M73.75 41.5625H64.9219C64.2747 41.5625 63.75 42.0872 63.75 42.7344C63.75 43.3816 64.2747 43.9062 64.9219 43.9062H73.75C74.3972 43.9062 74.9219 43.3816 74.9219 42.7344C74.9219 42.0872 74.3972 41.5625 73.75 41.5625Z" fill="black"/>
<path d="M61.4062 41.5625H61.0938C60.4466 41.5625 59.9219 42.0872 59.9219 42.7344C59.9219 43.3816 60.4466 43.9062 61.0938 43.9062H61.4062C62.0534 43.9062 62.5781 43.3816 62.5781 42.7344C62.5781 42.0872 62.0534 41.5625 61.4062 41.5625Z" fill="black"/>
<path d="M73.75 36.4062H64.9219C64.2747 36.4062 63.75 36.9309 63.75 37.5781C63.75 38.2253 64.2747 38.75 64.9219 38.75H73.75C74.3972 38.75 74.9219 38.2253 74.9219 37.5781C74.9219 36.9309 74.3972 36.4062 73.75 36.4062Z" fill="black"/>
<path d="M61.4062 36.4062H61.0938C60.4466 36.4062 59.9219 36.9309 59.9219 37.5781C59.9219 38.2253 60.4466 38.75 61.0938 38.75H61.4062C62.0534 38.75 62.5781 38.2253 62.5781 37.5781C62.5781 36.9309 62.0534 36.4062 61.4062 36.4062Z" fill="black"/>
<path d="M18.9062 46.5625H10.0781C9.43094 46.5625 8.90625 47.0872 8.90625 47.7344C8.90625 48.3816 9.43094 48.9062 10.0781 48.9062H18.9062C19.5534 48.9062 20.0781 48.3816 20.0781 47.7344C20.0781 47.0872 19.5534 46.5625 18.9062 46.5625Z" fill="black"/>
<path d="M6.5625 46.5625H6.25C5.60281 46.5625 5.07812 47.0872 5.07812 47.7344C5.07812 48.3816 5.60281 48.9062 6.25 48.9062H6.5625C7.20969 48.9062 7.73438 48.3816 7.73438 47.7344C7.73438 47.0872 7.20969 46.5625 6.5625 46.5625Z" fill="black"/>
<path d="M10.0781 53.9062H18.9062C19.5534 53.9062 20.0781 53.3816 20.0781 52.7344C20.0781 52.0872 19.5534 51.5625 18.9062 51.5625H10.0781C9.43094 51.5625 8.90625 52.0872 8.90625 52.7344C8.90625 53.3816 9.43094 53.9062 10.0781 53.9062Z" fill="black"/>
<path d="M6.5625 51.5625H6.25C5.60281 51.5625 5.07812 52.0872 5.07812 52.7344C5.07812 53.3816 5.60281 53.9062 6.25 53.9062H6.5625C7.20969 53.9062 7.73438 53.3816 7.73438 52.7344C7.73438 52.0872 7.20969 51.5625 6.5625 51.5625Z" fill="black"/>
<path d="M18.9062 41.5625H10.0781C9.43094 41.5625 8.90625 42.0872 8.90625 42.7344C8.90625 43.3816 9.43094 43.9062 10.0781 43.9062H18.9062C19.5534 43.9062 20.0781 43.3816 20.0781 42.7344C20.0781 42.0872 19.5534 41.5625 18.9062 41.5625Z" fill="black"/>
<path d="M6.5625 41.5625H6.25C5.60281 41.5625 5.07812 42.0872 5.07812 42.7344C5.07812 43.3816 5.60281 43.9062 6.25 43.9062H6.5625C7.20969 43.9062 7.73438 43.3816 7.73438 42.7344C7.73438 42.0872 7.20969 41.5625 6.5625 41.5625Z" fill="black"/>
<path d="M18.9062 36.4062H10.0781C9.43094 36.4062 8.90625 36.9309 8.90625 37.5781C8.90625 38.2253 9.43094 38.75 10.0781 38.75H18.9062C19.5534 38.75 20.0781 38.2253 20.0781 37.5781C20.0781 36.9309 19.5534 36.4062 18.9062 36.4062Z" fill="black"/>
<path d="M6.5625 36.4062H6.25C5.60281 36.4062 5.07812 36.9309 5.07812 37.5781C5.07812 38.2253 5.60281 38.75 6.25 38.75H6.5625C7.20969 38.75 7.73438 38.2253 7.73438 37.5781C7.73438 36.9309 7.20969 36.4062 6.5625 36.4062Z" fill="black"/>
<path d="M61.9531 27.5781C61.9531 30.5936 64.4064 33.0469 67.4219 33.0469C70.4373 33.0469 72.8906 30.5936 72.8906 27.5781C72.8906 24.5627 70.4373 22.1094 67.4219 22.1094C64.4064 22.1094 61.9531 24.5627 61.9531 27.5781ZM70.5469 27.5781C70.5469 29.3012 69.145 30.7031 67.4219 30.7031C65.6988 30.7031 64.2969 29.3012 64.2969 27.5781C64.2969 25.855 65.6988 24.4531 67.4219 24.4531C69.145 24.4531 70.5469 25.855 70.5469 27.5781Z" fill="black"/>
<path d="M12.5781 33.0469C15.5936 33.0469 18.0469 30.5936 18.0469 27.5781C18.0469 24.5627 15.5936 22.1094 12.5781 22.1094C9.56266 22.1094 7.10938 24.5627 7.10938 27.5781C7.10938 30.5936 9.56266 33.0469 12.5781 33.0469ZM12.5781 24.4531C14.3012 24.4531 15.7031 25.855 15.7031 27.5781C15.7031 29.3012 14.3012 30.7031 12.5781 30.7031C10.855 30.7031 9.45312 29.3012 9.45312 27.5781C9.45312 25.855 10.855 24.4531 12.5781 24.4531Z" fill="black"/>
<path d="M49.0625 14.2969H30.9375C30.2903 14.2969 29.7656 14.8216 29.7656 15.4688C29.7656 16.1159 30.2903 16.6406 30.9375 16.6406H49.0625C49.7097 16.6406 50.2344 16.1159 50.2344 15.4688C50.2344 14.8216 49.7097 14.2969 49.0625 14.2969Z" fill="black"/>
<path d="M32.4609 36.5744C33.1081 36.5744 33.6328 36.0497 33.6328 35.4025V34.8825C35.0553 34.747 36.1719 33.5463 36.1719 32.0889C36.1719 30.541 34.9125 29.2817 33.3647 29.2817H31.5573C31.3017 29.2817 31.0939 29.0738 31.0939 28.8183C31.0939 28.5627 31.3019 28.3549 31.5573 28.3549H34.7419C35.3891 28.3549 35.9138 27.8302 35.9138 27.183C35.9138 26.5358 35.3891 26.0111 34.7419 26.0111H33.6328V25.5047C33.6328 24.8575 33.1081 24.3328 32.4609 24.3328C31.8138 24.3328 31.2891 24.8575 31.2891 25.5047V26.0247C29.8666 26.1602 28.75 27.3609 28.75 28.8183C28.75 30.3661 30.0094 31.6255 31.5572 31.6255H33.3645C33.6202 31.6255 33.828 31.8335 33.828 32.0889C33.828 32.3444 33.62 32.5524 33.3645 32.5524H30.18C29.5328 32.5524 29.0081 33.077 29.0081 33.7242C29.0081 34.3714 29.5328 34.8961 30.18 34.8961H31.2889V35.4025C31.2891 36.0497 31.8138 36.5744 32.4609 36.5744Z" fill="black"/>
</svg>
